<?xml version="1.0" encoding="utf-8"?>
<svg viewBox="0 0 25 25" width="26.042px" height="26.042px" xmlns="http://www.w3.org/2000/svg">
  <path d="M 25 15.713 C 25 18.082 21.582 20 17.362 20 C 13.142 20 9.722 18.082 9.722 15.713 C 9.722 13.347 13.142 11.428 17.362 11.428 C 21.582 11.428 25 13.348 25 15.713 Z M 17.362 22.322 C 13.142 22.322 9.722 20.403 9.722 18.037 L 9.722 20.713 C 9.722 23.082 13.142 25 17.362 25 C 21.582 25 25 23.082 25 20.713 L 25 18.037 C 25 20.403 21.582 22.322 17.362 22.322 Z M 7.638 8.572 C 11.858 8.572 15.278 6.653 15.278 4.287 C 15.278 1.92 11.858 0 7.638 0 C 3.418 0 0 1.918 0 4.287 C 0 6.653 3.418 8.572 7.638 8.572 Z M 7.465 13.572 C 8.125 12.328 9.178 11.29 10.493 10.585 C 9.56 10.793 8.602 10.898 7.638 10.898 C 3.418 10.893 0 8.973 0 6.608 L 0 9.285 C 0 11.625 3.333 13.513 7.465 13.567 L 7.465 13.572 Z M 7.638 25 C 8.14 25 8.64 24.972 9.137 24.917 C 8.265 24.208 7.608 23.312 7.235 22.31 C 3.203 22.192 0 20.327 0 18.037 L 0 20.713 C 0 23.082 3.418 25 7.638 25 Z M 6.943 19.445 L 6.943 16.75 C 3.057 16.55 0 14.733 0 12.5 L 0 15.178 C 0 17.413 3.057 19.25 6.943 19.445 Z" style="fill: rgb(54, 138, 141);"/>
</svg>