<svg width="8" height="14" viewBox="0 0 8 14" fill="none" xmlns="http://www.w3.org/2000/svg">
<path d="M5.59658 6.97602C5.56357 6.95432 5.52564 6.93753 5.49828 6.91017C3.77184 5.18503 2.04588 3.45922 0.320414 1.73274C-0.0521697 1.35991 -0.105061 0.820732 0.189286 0.413614C0.270506 0.301278 0.374215 0.207078 0.493813 0.137007C0.61341 0.0669363 0.746279 0.0225311 0.883969 0.00661018C1.02166 -0.00931072 1.16115 0.00360376 1.29358 0.0445331C1.42601 0.0854625 1.54847 0.153508 1.65318 0.244346C1.68764 0.274259 1.71974 0.306543 1.75202 0.338828C3.72272 2.30961 5.69336 4.28051 7.66394 6.25153C8.11202 6.69969 8.11202 7.29942 7.66394 7.74721C5.68461 9.72699 3.70521 11.7066 1.72576 13.686C1.28807 14.1238 0.615306 14.1008 0.228133 13.636C0.0813337 13.4571 0.00102156 13.2329 0.000855321 13.0015C0.000689078 12.7701 0.0806781 12.5458 0.22722 12.3667C0.263695 12.3226 0.305093 12.2815 0.345944 12.2407C2.06278 10.5232 3.78005 8.80593 5.49774 7.08893C5.52527 7.06157 5.56302 7.04479 5.59603 7.02308C5.5964 7.00776 5.59658 6.99171 5.59658 6.97602Z" fill="#999999"/>
</svg>
